<?xml version="1.0" encoding="UTF-8"?>
<!DOCTYPE svg PUBLIC "-//W3C//DTD SVG 1.1//EN" "http://www.w3.org/Graphics/SVG/1.1/DTD/svg11.dtd">
<svg xmlns="http://www.w3.org/2000/svg" version="1.1" width="1000px" height="1000px" style="shape-rendering:geometricPrecision; text-rendering:geometricPrecision; image-rendering:optimizeQuality; fill-rule:evenodd; clip-rule:evenodd" xmlns:xlink="http://www.w3.org/1999/xlink">
<g><path style="opacity:0.991" fill="#0e1629" d="M 480.5,115.5 C 492.171,115.333 503.838,115.5 515.5,116C 548.048,120.548 566.548,139.048 571,171.5C 572.878,201.475 573.545,231.475 573,261.5C 568.011,286.824 554.177,305.657 531.5,318C 513.257,328.582 494.257,330.249 474.5,323C 451.641,313.474 435.474,297.308 426,274.5C 424.368,269.97 423.368,265.304 423,260.5C 422.589,231.479 423.256,202.479 425,173.5C 428.709,139.959 447.209,120.625 480.5,115.5 Z"/></g>
<g><path style="opacity:0.998" fill="#fc9900" d="M 706.5,672.5 C 680.65,742.712 654.983,813.046 629.5,883.5C 423.5,883.667 217.5,883.5 11.5,883C 4.82439,874.503 4.99106,866.003 12,857.5C 29.2984,833.858 48.465,811.691 69.5,791C 99.4283,763.06 131.095,737.393 164.5,714C 241.256,664.54 317.756,614.707 394,564.5C 394.791,563.255 395.291,561.922 395.5,560.5C 400.594,558.632 405.594,556.466 410.5,554C 485.5,505 560.5,456 635.5,407C 641.317,403.011 646.651,398.511 651.5,393.5C 696.497,392.549 741.497,392.382 786.5,393C 792.326,393.507 796.492,396.34 799,401.5C 800.233,414.337 798.233,426.67 793,438.5C 763.852,516.448 735.019,594.448 706.5,672.5 Z"/></g>
<g><path style="opacity:0.997" fill="#0f1729" d="M 651.5,393.5 C 646.651,398.511 641.317,403.011 635.5,407C 560.5,456 485.5,505 410.5,554C 405.594,556.466 400.594,558.632 395.5,560.5C 388.248,557.541 381.248,554.041 374.5,550C 324.51,518.671 276.177,485.004 229.5,449C 216.072,438.907 203.905,427.407 193,414.5C 189.591,400.876 195.091,393.709 209.5,393C 356.833,392.698 504.167,392.864 651.5,393.5 Z"/></g>
<g><path style="opacity:0.997" fill="#0f1729" d="M 706.5,672.5 C 757.325,695.237 805.658,722.07 851.5,753C 874.442,768.277 897.109,783.943 919.5,800C 943.583,818.746 967.083,838.246 990,858.5C 994.143,866.553 994.643,874.886 991.5,883.5C 870.833,883.5 750.167,883.5 629.5,883.5C 654.983,813.046 680.65,742.712 706.5,672.5 Z"/></g>
</svg>
