<svg width="81" height="80" viewBox="0 0 81 80" fill="none" xmlns="http://www.w3.org/2000/svg">
<path d="M40.5 68C56.2401 68 69 55.2401 69 39.5C69 23.7599 56.2401 11 40.5 11C24.7599 11 12 23.7599 12 39.5C12 55.2401 24.7599 68 40.5 68Z" fill="url(#paint0_linear_462_1446)"/>
<path d="M21.9942 40.714C25.3418 38.8847 29.0786 37.3578 32.5701 35.8232C38.5768 33.3095 44.6073 30.8395 50.6988 28.5399C51.8839 28.1481 54.0134 27.765 54.2222 29.5074C54.1078 31.9739 53.6375 34.426 53.3149 36.878C52.4961 42.2704 51.5496 47.6442 50.6267 53.0188C50.3087 54.809 48.0482 55.7358 46.6018 54.5901C43.1259 52.2607 39.6232 49.954 36.1916 47.5705C35.0675 46.4374 36.1099 44.81 37.1138 44.0008C39.9767 41.2016 43.0129 38.8234 45.7262 35.8796C46.4581 34.1262 44.2955 35.6039 43.5822 36.0567C39.6629 38.7363 35.8394 41.5795 31.7072 43.9345C29.5965 45.0872 27.1364 44.1022 25.0266 43.4589C23.135 42.6819 20.3631 41.8988 21.9942 40.714Z" fill="white"/>
<defs>
<linearGradient id="paint0_linear_462_1446" x1="32.5119" y1="-15.3868" x2="-6.44204" y2="47.5942" gradientUnits="userSpaceOnUse">
<stop stop-color="#34B0DF"/>
<stop offset="1" stop-color="#1E88D3"/>
</linearGradient>
</defs>
</svg>
