<svg width="80" height="81" viewBox="0 0 80 81" fill="none" xmlns="http://www.w3.org/2000/svg">
<path d="M40.5 12C56.2401 12 69 24.7599 69 40.5C69 56.2401 56.2401 69 40.5 69C24.7599 69 12 56.2401 12 40.5C12 24.7599 24.7599 12 40.5 12ZM39.0927 38.3229L28.8746 47.4471C27.822 48.2753 27.1314 49.6424 27.1314 51.1802C27.1314 53.6914 28.9736 55.7464 31.2251 55.7464H50.4285C52.68 55.7464 54.5222 53.6914 54.5222 51.1802C54.5222 48.6684 52.68 46.6141 50.4285 46.6141H35.8909C35.6754 46.6141 35.5391 46.3559 35.6442 46.1458L39.3923 38.6415C39.5292 38.4225 39.2825 38.1602 39.0927 38.3229ZM50.4285 25.2175H31.2251C28.9736 25.2175 27.1314 27.2718 27.1314 29.7836C27.1314 32.2948 28.9736 34.3498 31.2251 34.3498H45.7627C45.9782 34.3498 46.1144 34.608 46.0094 34.8181L42.2613 42.3224C42.1244 42.5414 42.3711 42.8037 42.5609 42.641L52.779 33.5155C53.8315 32.6865 54.5222 31.3202 54.5222 29.7823C54.5222 27.2711 52.68 25.2161 50.4285 25.2175Z" fill="url(#paint0_linear_1147_575)"/>
<defs>
<linearGradient id="paint0_linear_1147_575" x1="2862" y1="12" x2="2862" y2="5712" gradientUnits="userSpaceOnUse">
<stop stop-color="#24ADFF"/>
<stop offset="1" stop-color="#7B71FF"/>
</linearGradient>
</defs>
</svg>
