<svg version="1.1" xmlns="http://www.w3.org/2000/svg" width="300" height="300">
    <path d="M0 0 C11.08430053 6.42249182 18.85051267 15.13021697 23.1640625 27.25390625 C23.48375 28.14851563 23.8034375 29.043125 24.1328125 29.96484375 C30.89851614 53.33157948 25.82752981 81.49756894 15.0390625 102.81640625 C1.88535222 125.99875526 -17.9996647 143.62409396 -43.6484375 151.44140625 C-63.90425207 156.83858661 -85.44164171 157.15535665 -105.8359375 152.25390625 C-106.93550781 151.99867188 -108.03507812 151.7434375 -109.16796875 151.48046875 C-123.03812592 147.75211578 -140.64132496 139.54582505 -148.8359375 127.25390625 C-148.4609375 124.56640625 -148.4609375 124.56640625 -147.8359375 122.25390625 C-143.52123702 122.0998098 -140.29807007 122.13236827 -136.078125 123.2421875 C-131.83073243 124.35398751 -127.83799359 124.60094615 -123.4609375 124.56640625 C-122.3462207 124.55903442 -122.3462207 124.55903442 -121.20898438 124.55151367 C-106.75477315 124.24434593 -95.71311495 117.52485822 -85.8359375 107.25390625 C-74.25587893 93.29375658 -69.99903407 76.66588315 -65.09130859 59.60595703 C-51.23992229 11.69837977 -51.23992229 11.69837977 -34.27734375 1.75390625 C-23.64546255 -3.677766 -11.10499403 -5.32965433 0 0 Z " fill="#4EC4CD" transform="translate(229.8359375,95.74609375)"/>
    <path d="M0 0 C0.62132812 0.52722656 1.24265625 1.05445312 1.8828125 1.59765625 C5.9605181 5.30552343 5.9605181 5.30552343 6.15234375 8.6796875 C6.10207031 9.44539063 6.05179688 10.21109375 6 11 C1.10414781 11.18397774 -3.49122684 11.27259094 -8.25 10 C-21.4017564 6.8046789 -34.20387179 9.33221525 -45.75 16.125 C-65.73880951 29.77092673 -71.86798989 53.06593712 -78.19238281 75.02563477 C-91.1902218 119.97714318 -91.1902218 119.97714318 -109.38671875 132.6640625 C-118.09691449 137.43933061 -129.4165181 137.72008745 -138.9453125 135.23046875 C-141.11890382 134.30577142 -143.02178791 133.28495473 -145 132 C-146.0725 131.360625 -147.145 130.72125 -148.25 130.0625 C-160.47577451 120.89316912 -166.84226277 107.93508415 -169 93 C-171.5197784 61.84282857 -163.3854878 34.29671523 -143.24609375 10.52734375 C-108.6184223 -28.43631439 -40.19223933 -34.94626432 0 0 Z " fill="#4EC4CD" transform="translate(213,72)"/>
</svg>
