<?xml version="1.0" encoding="UTF-8"?>
<svg width="700pt" height="700pt" version="1.1" viewBox="0 0 700 700" xmlns="http://www.w3.org/2000/svg">
 <path d="m276.85 476.88h146.3-0.003906c-9.4844 17.746-25.102 31.434-43.934 38.523-18.832 7.0859-39.598 7.0859-58.43 0-18.832-7.0898-34.449-20.777-43.934-38.523zm268.8-317.27c-9.2617-18.457-21.039-35.535-35-50.75-5.1211-5.1211-13.426-5.1211-18.547 0-5.1211 5.1211-5.1211 13.426 0 18.547 11.969 13.281 22.094 28.117 30.098 44.102 2.2109 4.4414 6.7656 7.2266 11.727 7.1758 2.0664 0.035157 4.1133-0.44531 5.9492-1.4023 6.4062-3.3438 8.9727-11.191 5.7734-17.672zm-367.5 11.898c8.5078-16.273 19.227-31.289 31.852-44.625 5.1172-5.125 5.1172-13.426 0-18.551-5.125-5.1172-13.426-5.1172-18.551 0-13.957 15.215-25.738 32.297-35 50.75-3.082 6.4375-0.53516 14.164 5.7773 17.5 1.8359 0.95703 3.8789 1.4375 5.9492 1.4023 4.0508-0.52344 7.6172-2.9219 9.625-6.4766zm321.12 91v-3.6758c-0.042969-31.145-9.8125-61.496-27.949-86.816-18.133-25.32-43.727-44.344-73.199-54.406v-30.102c0-17.195-9.1719-33.082-24.062-41.676-14.891-8.5977-33.234-8.5977-48.125 0-14.891 8.5938-24.062 24.48-24.062 41.676v29.926c-29.473 10.066-55.066 29.086-73.199 54.406-18.137 25.32-27.906 55.672-27.949 86.816v3.8516c-0.050781 34.59-10.211 68.406-29.227 97.301-6.2734 9.5664-9.6172 20.758-9.625 32.199v10.5c0 12.762 5.0703 25.004 14.094 34.031 9.0273 9.0234 21.27 14.094 34.031 14.094h280c12.762 0 25.004-5.0703 34.031-14.094 9.0234-9.0273 14.094-21.27 14.094-34.031v-10.5c-0.007812-11.441-3.3516-22.633-9.625-32.199-19.016-28.895-29.176-62.711-29.227-97.301z"/>
</svg>
